# xmcd
#
# Track frame offsets: 
#        150
#        18685
#        40503
#        65725
#        85091
#        114801
#        136691
#        151600
#        176904
#        194273
#        213490
#        235329
#        253544
#        273423
#        289375
#        306805
#        330321
#
# Disc length: 4747 seconds
#
# Revision: 0
# Processed by: cddbd v1.5.2PL0 Copyright (c) Steve Scherf et al.
# Submitted via: ExactAudioCopy v1.3
#
DISCID=e8128911
DTITLE=Various Artist - Akella Presents - vol. 154 - Electric Blues  
DTITLE=CD2
DYEAR=2018
DGENRE=Blues
TTITLE0=The Bluesbones - Love Me Or Leave Me
TTITLE1=Bobby Mack - Borrowed Time
TTITLE2=Zed Mitchell - Now Is Our Time
TTITLE3=Colin James - 40 Light Years
TTITLE4=Tim Brooks - Blind Willie McTell
TTITLE5=Junkyardmen - High and Dry
TTITLE6=Keith Stone With Red Gravy - Blue Eyed Angel
TTITLE7=Little Boys Blue - Got A Mind Of Your Own
TTITLE8=Tom McGuinness - Ain't It Strange How Things Can Change
TTITLE9=The Blues Band - Brother Blues
TTITLE10=Ghost Riders - Won't Let You Down
TTITLE11=The Alabama Lovesnakes - Daddy's Gone Shooting
TTITLE12=General Blues Band - Loosing My Baby
TTITLE13=John Campbelljohn - Do The Right Thing
TTITLE14=Duke Danger - Damn Your Eyes
TTITLE15=Buddy Guy - The Blues Is Alive And Well
TTITLE16=Rollercoaster - Double Trouble
EXTD=
EXTT0=
EXTT1=
EXTT2=
EXTT3=
EXTT4=
EXTT5=
EXTT6=
EXTT7=
EXTT8=
EXTT9=
EXTT10=
EXTT11=
EXTT12=
EXTT13=
EXTT14=
EXTT15=
EXTT16=
PLAYORDER=
